<svg width="210" height="32" viewBox="0 0 210 32" fill="none" xmlns="http://www.w3.org/2000/svg">
<path d="M204.297 22.857V13.0924H206.473V15.7804L206.217 14.9941C206.509 14.3358 206.967 13.836 207.588 13.4947C208.222 13.1533 209.008 12.9827 209.947 12.9827V15.1587C209.85 15.1343 209.758 15.1221 209.673 15.1221C209.588 15.1099 209.502 15.1038 209.417 15.1038C208.551 15.1038 207.863 15.3598 207.351 15.8718C206.839 16.3716 206.583 17.1213 206.583 18.121V22.857H204.297Z" fill="#2D856C"/>
<path d="M197.512 22.985C196.427 22.985 195.476 22.7716 194.659 22.345C193.855 21.9061 193.227 21.3088 192.776 20.553C192.337 19.7971 192.118 18.9377 192.118 17.9747C192.118 16.9994 192.331 16.14 192.758 15.3964C193.197 14.6406 193.794 14.0493 194.55 13.6227C195.318 13.196 196.189 12.9827 197.165 12.9827C198.115 12.9827 198.963 13.1899 199.706 13.6044C200.45 14.0189 201.035 14.604 201.462 15.3598C201.888 16.1156 202.102 17.0055 202.102 18.0295C202.102 18.127 202.096 18.2368 202.083 18.3587C202.083 18.4806 202.077 18.5964 202.065 18.7061H193.928V17.1884H200.858L199.962 17.6638C199.974 17.103 199.859 16.6093 199.615 16.1827C199.371 15.756 199.036 15.4208 198.609 15.177C198.195 14.9331 197.713 14.8112 197.165 14.8112C196.604 14.8112 196.11 14.9331 195.683 15.177C195.269 15.4208 194.94 15.7621 194.696 16.201C194.464 16.6276 194.349 17.1335 194.349 17.7187V18.0844C194.349 18.6695 194.483 19.1876 194.751 19.6387C195.019 20.0897 195.397 20.4371 195.885 20.681C196.372 20.9248 196.933 21.0467 197.567 21.0467C198.115 21.0467 198.609 20.9613 199.048 20.7907C199.487 20.62 199.877 20.3518 200.218 19.9861L201.443 21.3941C201.005 21.9061 200.45 22.3023 199.779 22.5827C199.121 22.8509 198.365 22.985 197.512 22.985Z" fill="#2D856C"/>
<path d="M183.555 20.6811L183.61 17.8102L188.712 13.0925H191.455L187.121 17.4445L185.914 18.4502L183.555 20.6811ZM181.69 22.8571V9.28906H183.976V22.8571H181.69ZM189.059 22.8571L185.493 18.4502L186.938 16.6216L191.839 22.8571H189.059Z" fill="#2D856C"/>
<path d="M175.634 22.985C174.61 22.985 173.696 22.7716 172.891 22.345C172.099 21.9061 171.477 21.3088 171.026 20.553C170.575 19.7971 170.35 18.9377 170.35 17.9747C170.35 16.9994 170.575 16.14 171.026 15.3964C171.477 14.6406 172.099 14.0493 172.891 13.6227C173.696 13.196 174.61 12.9827 175.634 12.9827C176.585 12.9827 177.42 13.1777 178.139 13.5678C178.871 13.9457 179.425 14.5065 179.803 15.2501L178.048 16.2741C177.755 15.8109 177.396 15.4695 176.969 15.2501C176.555 15.0307 176.104 14.921 175.616 14.921C175.055 14.921 174.549 15.0429 174.098 15.2867C173.647 15.5305 173.294 15.884 173.038 16.3472C172.782 16.7983 172.654 17.3408 172.654 17.9747C172.654 18.6086 172.782 19.1571 173.038 19.6204C173.294 20.0714 173.647 20.4189 174.098 20.6627C174.549 20.9065 175.055 21.0284 175.616 21.0284C176.104 21.0284 176.555 20.9187 176.969 20.6992C177.396 20.4798 177.755 20.1385 178.048 19.6752L179.803 20.6992C179.425 21.4307 178.871 21.9975 178.139 22.3998C177.42 22.7899 176.585 22.985 175.634 22.985Z" fill="#2D856C"/>
<path d="M166.045 22.857V20.8821L165.917 20.4615V17.0055C165.917 16.335 165.716 15.817 165.313 15.4512C164.911 15.0733 164.302 14.8844 163.485 14.8844C162.936 14.8844 162.394 14.9697 161.857 15.1404C161.333 15.311 160.888 15.5488 160.523 15.8535L159.627 14.1895C160.151 13.7872 160.772 13.4886 161.492 13.2935C162.223 13.0863 162.979 12.9827 163.759 12.9827C165.173 12.9827 166.264 13.324 167.032 14.0067C167.812 14.6771 168.203 15.7194 168.203 17.1335V22.857H166.045ZM162.973 22.985C162.241 22.985 161.601 22.863 161.053 22.6192C160.504 22.3632 160.078 22.0158 159.773 21.577C159.48 21.1259 159.334 20.62 159.334 20.0592C159.334 19.5107 159.462 19.017 159.718 18.5781C159.986 18.1392 160.419 17.7918 161.016 17.5358C161.614 17.2798 162.406 17.1518 163.393 17.1518H166.228V18.6695H163.558C162.778 18.6695 162.254 18.7975 161.985 19.0535C161.717 19.2973 161.583 19.6021 161.583 19.9678C161.583 20.3823 161.748 20.7114 162.077 20.9552C162.406 21.199 162.863 21.321 163.448 21.321C164.009 21.321 164.509 21.193 164.948 20.937C165.399 20.681 165.722 20.303 165.917 19.8032L166.301 21.1747C166.081 21.7476 165.685 22.1926 165.112 22.5095C164.552 22.8265 163.838 22.985 162.973 22.985Z" fill="#2D856C"/>
<path d="M153.136 22.857V13.0924H155.312V15.7804L155.056 14.9941C155.349 14.3358 155.806 13.836 156.428 13.4947C157.062 13.1533 157.848 12.9827 158.787 12.9827V15.1587C158.689 15.1343 158.598 15.1221 158.512 15.1221C158.427 15.1099 158.342 15.1038 158.256 15.1038C157.391 15.1038 156.702 15.3598 156.19 15.8718C155.678 16.3716 155.422 17.1213 155.422 18.121V22.857H153.136Z" fill="#2D856C"/>
<path d="M145.184 22.8571V12.0686H140.942V10.0571H151.804V12.0686H147.561V22.8571H145.184Z" fill="#2D856C"/>
<path d="M137.315 22.985C136.23 22.985 135.279 22.7716 134.463 22.345C133.658 21.9061 133.03 21.3088 132.579 20.553C132.14 19.7971 131.921 18.9377 131.921 17.9747C131.921 16.9994 132.134 16.14 132.561 15.3964C133 14.6406 133.597 14.0493 134.353 13.6227C135.121 13.196 135.993 12.9827 136.968 12.9827C137.919 12.9827 138.766 13.1899 139.509 13.6044C140.253 14.0189 140.838 14.604 141.265 15.3598C141.692 16.1156 141.905 17.0055 141.905 18.0295C141.905 18.127 141.899 18.2368 141.887 18.3587C141.887 18.4806 141.881 18.5964 141.868 18.7061H133.731V17.1884H140.661L139.765 17.6638C139.778 17.103 139.662 16.6093 139.418 16.1827C139.174 15.756 138.839 15.4208 138.412 15.177C137.998 14.9331 137.516 14.8112 136.968 14.8112C136.407 14.8112 135.913 14.9331 135.487 15.177C135.072 15.4208 134.743 15.7621 134.499 16.201C134.268 16.6276 134.152 17.1335 134.152 17.7187V18.0844C134.152 18.6695 134.286 19.1876 134.554 19.6387C134.822 20.0897 135.2 20.4371 135.688 20.681C136.175 20.9248 136.736 21.0467 137.37 21.0467C137.919 21.0467 138.412 20.9613 138.851 20.7907C139.29 20.62 139.68 20.3518 140.021 19.9861L141.247 21.3941C140.808 21.9061 140.253 22.3023 139.583 22.5827C138.924 22.8509 138.169 22.985 137.315 22.985Z" fill="#2D856C"/>
<path d="M126.724 22.985C125.7 22.985 124.785 22.7716 123.981 22.345C123.188 21.9061 122.567 21.3088 122.116 20.553C121.664 19.7971 121.439 18.9377 121.439 17.9747C121.439 16.9994 121.664 16.14 122.116 15.3964C122.567 14.6406 123.188 14.0493 123.981 13.6227C124.785 13.196 125.7 12.9827 126.724 12.9827C127.674 12.9827 128.509 13.1777 129.229 13.5678C129.96 13.9457 130.515 14.5065 130.893 15.2501L129.137 16.2741C128.845 15.8109 128.485 15.4695 128.058 15.2501C127.644 15.0307 127.193 14.921 126.705 14.921C126.144 14.921 125.639 15.0429 125.188 15.2867C124.736 15.5305 124.383 15.884 124.127 16.3472C123.871 16.7983 123.743 17.3408 123.743 17.9747C123.743 18.6086 123.871 19.1571 124.127 19.6204C124.383 20.0714 124.736 20.4189 125.188 20.6627C125.639 20.9065 126.144 21.0284 126.705 21.0284C127.193 21.0284 127.644 20.9187 128.058 20.6992C128.485 20.4798 128.845 20.1385 129.137 19.6752L130.893 20.6992C130.515 21.4307 129.96 21.9975 129.229 22.3998C128.509 22.7899 127.674 22.985 126.724 22.985Z" fill="#2D856C"/>
<path d="M115.248 12.9827C116.028 12.9827 116.723 13.135 117.333 13.4398C117.954 13.7446 118.442 14.2139 118.796 14.8478C119.149 15.4695 119.326 16.2741 119.326 17.2615V22.857H117.04V17.5541C117.04 16.6886 116.833 16.0425 116.418 15.6158C116.016 15.1891 115.449 14.9758 114.718 14.9758C114.181 14.9758 113.706 15.0855 113.292 15.305C112.877 15.5244 112.554 15.8535 112.322 16.2924C112.103 16.719 111.993 17.2615 111.993 17.9198V22.857H109.708V13.0924H111.884V15.7255L111.5 14.921C111.841 14.2992 112.335 13.8238 112.981 13.4947C113.639 13.1533 114.395 12.9827 115.248 12.9827Z" fill="#2D856C"/>
<path d="M104.616 22.857V20.8821L104.488 20.4615V17.0055C104.488 16.335 104.287 15.817 103.885 15.4512C103.482 15.0733 102.873 14.8844 102.056 14.8844C101.508 14.8844 100.965 14.9697 100.429 15.1404C99.9045 15.311 99.4596 15.5488 99.0938 15.8535L98.1978 14.1895C98.722 13.7872 99.3438 13.4886 100.063 13.2935C100.794 13.0863 101.55 12.9827 102.33 12.9827C103.745 12.9827 104.836 13.324 105.604 14.0067C106.384 14.6771 106.774 15.7194 106.774 17.1335V22.857H104.616ZM101.544 22.985C100.813 22.985 100.173 22.863 99.6241 22.6192C99.0756 22.3632 98.6489 22.0158 98.3441 21.577C98.0516 21.1259 97.9053 20.62 97.9053 20.0592C97.9053 19.5107 98.0333 19.017 98.2893 18.5781C98.5575 18.1392 98.9902 17.7918 99.5876 17.5358C100.185 17.2798 100.977 17.1518 101.965 17.1518H104.799V18.6695H102.129C101.349 18.6695 100.825 18.7975 100.557 19.0535C100.289 19.2973 100.154 19.6021 100.154 19.9678C100.154 20.3823 100.319 20.7114 100.648 20.9552C100.977 21.199 101.434 21.321 102.02 21.321C102.58 21.321 103.08 21.193 103.519 20.937C103.97 20.681 104.293 20.303 104.488 19.8032L104.872 21.1747C104.653 21.7476 104.257 22.1926 103.684 22.5095C103.123 22.8265 102.41 22.985 101.544 22.985Z" fill="#2D856C"/>
<path d="M91.6231 12.9827C92.4033 12.9827 93.0981 13.135 93.7077 13.4398C94.3294 13.7446 94.817 14.2139 95.1705 14.8478C95.524 15.4695 95.7008 16.2741 95.7008 17.2615V22.857H93.4151V17.5541C93.4151 16.6886 93.2079 16.0425 92.7934 15.6158C92.3911 15.1891 91.8242 14.9758 91.0928 14.9758C90.5564 14.9758 90.081 15.0855 89.6665 15.305C89.252 15.5244 88.929 15.8535 88.6974 16.2924C88.478 16.719 88.3682 17.2615 88.3682 17.9198V22.857H86.0825V13.0924H88.2585V15.7255L87.8745 14.921C88.2159 14.2992 88.7096 13.8238 89.3557 13.4947C90.0139 13.1533 90.7698 12.9827 91.6231 12.9827Z" fill="#2D856C"/>
<path d="M80.7967 22.8571V13.0925H83.0824V22.8571H80.7967ZM81.9487 11.4833C81.522 11.4833 81.1685 11.3492 80.8881 11.081C80.6199 10.8129 80.4858 10.4898 80.4858 10.1119C80.4858 9.72181 80.6199 9.39876 80.8881 9.14276C81.1685 8.87457 81.522 8.74048 81.9487 8.74048C82.3754 8.74048 82.7228 8.86848 82.991 9.12448C83.2714 9.36829 83.4116 9.67915 83.4116 10.057C83.4116 10.4593 83.2775 10.8007 83.0093 11.081C82.7411 11.3492 82.3876 11.4833 81.9487 11.4833Z" fill="#2D856C"/>
<path d="M71.5495 15.9451H77.9312V17.9566H71.5495V15.9451ZM71.7507 22.8571H69.3735V10.0571H78.7175V12.0503H71.7507V22.8571Z" fill="#2D856C"/>
<path d="M59.3873 26.5325C58.9119 26.5325 58.4365 26.4533 57.961 26.2948C57.4856 26.1363 57.0894 25.9169 56.7725 25.6365L57.6867 23.9542C57.9184 24.1615 58.1805 24.3261 58.473 24.448C58.7656 24.5699 59.0643 24.6308 59.369 24.6308C59.7835 24.6308 60.1187 24.5272 60.3747 24.32C60.6307 24.1127 60.8685 23.7653 61.0879 23.2777L61.6547 21.9977L61.8376 21.7234L65.5313 13.0925H67.7256L63.1542 23.6434C62.8494 24.3748 62.5081 24.9539 62.1302 25.3805C61.7645 25.8072 61.35 26.1059 60.8867 26.2765C60.4357 26.4472 59.9359 26.5325 59.3873 26.5325ZM61.3987 23.2045L56.9919 13.0925H59.369L62.953 21.5222L61.3987 23.2045Z" fill="#2D856C"/>
<path d="M41.3379 22.8571V10.0571H43.2945L48.8899 19.4011H47.8659L53.3699 10.0571H55.3265L55.3447 22.8571H53.0956L53.0773 13.5863H53.5527L48.8716 21.3943H47.811L43.0567 13.5863H43.6053V22.8571H41.3379Z" fill="#2D856C"/>
<g clip-path="url(#clip0_73_1036)">
<path d="M26 32H6C2.686 32 0 29.314 0 26V6C0 2.686 2.686 0 6 0H26C29.314 0 32 2.686 32 6V26C32 29.314 29.314 32 26 32Z" fill="#3DAC91"/>
<path d="M13.667 12.666C16.7968 12.666 19.334 11.6215 19.334 10.333C19.334 9.04452 16.7968 8 13.667 8C10.5372 8 8 9.04452 8 10.333C8 11.6215 10.5372 12.666 13.667 12.666Z" fill="#141414"/>
<path d="M12.94 15.9789C13.383 15.0399 14.048 14.2289 14.869 13.6099C14.471 13.6439 14.069 13.6669 13.666 13.6669C11.459 13.6669 9.23902 13.1559 7.99902 12.1689V13.6669C8.00002 14.8539 10.155 15.8319 12.94 15.9789Z" fill="#141414"/>
<path d="M12.333 18.667C12.333 18.073 12.421 17.499 12.575 16.953C10.752 16.813 9.034 16.326 8 15.502V17C8 18.104 9.863 19.026 12.364 19.269C12.345 19.07 12.333 18.87 12.333 18.667Z" fill="#141414"/>
<path d="M18.667 13.333C15.726 13.333 13.334 15.726 13.334 18.666C13.334 21.606 15.726 24 18.667 24C21.608 24 24 21.607 24 18.667C24 15.727 21.607 13.333 18.667 13.333ZM18.413 18.167H18.92C19.699 18.167 20.333 18.801 20.333 19.58C20.333 20.281 19.828 20.857 19.166 20.975V21.5C19.166 21.776 18.942 22 18.666 22C18.39 22 18.166 21.776 18.166 21.5V21H17.5C17.224 21 17 20.776 17 20.5C17 20.224 17.224 20 17.5 20H18.92C19.148 20 19.333 19.814 19.333 19.587C19.333 19.353 19.147 19.167 18.92 19.167H18.413C17.634 19.167 17 18.533 17 17.754C17 17.053 17.505 16.477 18.167 16.359V15.834C18.167 15.558 18.391 15.334 18.667 15.334C18.943 15.334 19.167 15.558 19.167 15.834V16.334H19.834C20.11 16.334 20.334 16.558 20.334 16.834C20.334 17.11 20.11 17.334 19.834 17.334H18.414C18.186 17.334 18.001 17.52 18.001 17.747C18 17.981 18.186 18.167 18.413 18.167Z" fill="#141414"/>
</g>
<defs>
<clipPath id="clip0_73_1036">
<rect width="32" height="32" fill="white"/>
</clipPath>
</defs>
</svg>
